<?xml version="1.0" encoding="UTF-8"?>
<svg width="600" height="400" viewBox="0 0 600 400" xmlns="http://www.w3.org/2000/svg">
  <rect width="600" height="400" fill="#f8f9fa"/>
  <circle cx="300" cy="200" r="150" fill="#ffe3e3"/>
  <path d="M300 80c-66.274 0-120 53.726-120 120s53.726 120 120 120 120-53.726 120-120-53.726-120-120-120zm0 20c55.228 0 100 44.772 100 100s-44.772 100-100 100-100-44.772-100-100 44.772-100 100-100z" fill="#ff6b6b"/>
  <path d="M300 140c-33.137 0-60 26.863-60 60s26.863 60 60 60 60-26.863 60-60-26.863-60-60-60zm0 30c16.569 0 30 13.431 30 30s-13.431 30-30 30-30-13.431-30-30 13.431-30 30-30z" fill="#ff6b6b"/>
  <path d="M300 230c-16.569 0-30-13.431-30-30s13.431-30 30-30 30 13.431 30 30-13.431 30-30 30zm0-45c-8.284 0-15 6.716-15 15s6.716 15 15 15 15-6.716 15-15-6.716-15-15-15z" fill="#ff6b6b"/>
  <text x="300" y="320" font-family="Arial, sans-serif" font-size="24" font-weight="bold" text-anchor="middle" fill="#333">Safety First</text>
  <text x="300" y="350" font-family="Arial, sans-serif" font-size="18" text-anchor="middle" fill="#666">Travel with confidence</text>
</svg>