<?xml version="1.0" encoding="UTF-8"?>
<svg width="24" height="24" viewBox="0 0 24 24" xmlns="http://www.w3.org/2000/svg">
  <path d="M21 11.5v-1c0-.8-.7-1.5-1.5-1.5H16v-2c0-.8-.7-1.5-1.5-1.5h-1c-.8 0-1.5.7-1.5 1.5v2h-2v-2c0-.8-.7-1.5-1.5-1.5h-1c-.8 0-1.5.7-1.5 1.5v2H4.5c-.8 0-1.5.7-1.5 1.5v1c0 .8.7 1.5 1.5 1.5H6v2H4.5c-.8 0-1.5.7-1.5 1.5v1c0 .8.7 1.5 1.5 1.5H6v2c0 .8.7 1.5 1.5 1.5h1c.8 0 1.5-.7 1.5-1.5v-2h2v2c0 .8.7 1.5 1.5 1.5h1c.8 0 1.5-.7 1.5-1.5v-2h2.5c.8 0 1.5-.7 1.5-1.5v-1c0-.8-.7-1.5-1.5-1.5H16v-2h3.5c.8 0 1.5-.7 1.5-1.5zM14 14H8v-4h6v4z" fill="#ff6b6b"/>
</svg>