<?xml version="1.0" encoding="UTF-8"?>
<svg width="144" height="144" viewBox="0 0 144 144" xmlns="http://www.w3.org/2000/svg">
  <rect width="144" height="144" rx="20" fill="#ff6b6b"/>
  <path d="M72 30c-23.196 0-42 18.804-42 42 0 23.196 18.804 42 42 42 23.196 0 42-18.804 42-42 0-23.196-18.804-42-42-42zm0 6c19.882 0 36 16.118 36 36s-16.118 36-36 36-36-16.118-36-36 16.118-36 36-36z" fill="white"/>
  <path d="M72 48c-13.255 0-24 10.745-24 24s10.745 24 24 24 24-10.745 24-24-10.745-24-24-24zm0 12c6.627 0 12 5.373 12 12s-5.373 12-12 12-12-5.373-12-12 5.373-12 12-12z" fill="white"/>
  <path d="M72 84c-6.627 0-12-5.373-12-12s5.373-12 12-12 12 5.373 12 12-5.373 12-12 12zm0-18c-3.314 0-6 2.686-6 6s2.686 6 6 6 6-2.686 6-6-2.686-6-6-6z" fill="white"/>
</svg>